<?xml version="1.0" encoding="UTF-8"?>
<!DOCTYPE svg PUBLIC "-//W3C//DTD SVG 1.1//EN" "http://www.w3.org/Graphics/SVG/1.1/DTD/svg11.dtd">
<!-- Creator: CorelDRAW -->
<svg xmlns="http://www.w3.org/2000/svg" xml:space="preserve" width="6.13854in" height="3.10841in" version="1.1" style="shape-rendering:geometricPrecision; text-rendering:geometricPrecision; image-rendering:optimizeQuality; fill-rule:evenodd; clip-rule:evenodd"
viewBox="0 0 6138.54 3108.41"
 xmlns:xlink="http://www.w3.org/1999/xlink">
 <defs>
  <style type="text/css">
   <![CDATA[
    .fil5 {fill:black}
    .fil2 {fill:#1DC65B}
    .fil3 {fill:#21AAE0}
    .fil4 {fill:#E04141}
    .fil1 {fill:#E27134}
    .fil0 {fill:black;fill-rule:nonzero}
   ]]>
  </style>
 </defs>
 <g id="Layer_x0020_1">
  <metadata id="CorelCorpID_0Corel-Layer"/>
  <g id="_2870871407296">
   <path id="ColorShapes6" class="fil0" d="M258.19 2654l85 200.19 -170 0 85 -200.19zm0 -153.33l-258.19 583.9 75.47 0 70.7 -166.83 224.03 0 70.7 166.83 75.47 0 -258.19 -583.9z"/>
   <path id="1" class="fil0" d="M540.21 2528.48l0 373.38c0,110.43 81.82,190.66 189.07,190.66 107.25,0 189.07,-80.24 189.07,-190.66l0 -373.38 -67.52 0 0 373.38c0,76.26 -50.05,127.11 -121.55,127.11 -71.5,0 -121.55,-50.84 -121.55,-127.11l0 -373.38 -67.52 0z"/>
   <polygon id="2" class="fil0" points="971.58,2592.04 1114.57,2592.04 1114.57,3084.57 1182.1,3084.57 1182.1,2592.04 1325.09,2592.04 1325.09,2528.48 971.58,2528.48 "/>
   <path id="3" class="fil0" d="M1333.04 2806.53c0,166.04 123.93,285.99 285.99,285.99 162.06,0 285.99,-119.96 285.99,-285.99 0,-166.04 -123.93,-285.99 -285.99,-285.99 -162.06,0 -285.99,119.96 -285.99,285.99zm67.53 0c0,-129.49 92.94,-222.44 218.46,-222.44 125.52,0 218.47,92.94 218.47,222.44 0,129.49 -92.95,222.44 -218.47,222.44 -125.52,0 -218.46,-92.94 -218.46,-222.44z"/>
   <polygon id="ColorShapes5" class="fil0" points="2276.02,2882 2486.54,2882 2486.54,2754.89 2276.02,2754.89 2276.02,2667.5 2494.49,2667.5 2494.49,2528.48 2125.08,2528.48 2125.08,3084.57 2276.02,3084.57 "/>
   <path id="1" class="fil0" d="M2792.39 2488.76l-313.8 595.81 166.83 0 38.13 -79.44 217.67 0 38.13 79.44 166.83 0 -313.8 -595.81zm0 292.35l50.84 104.86 -101.69 0 50.84 -104.86z"/>
   <path id="2" class="fil0" d="M3227.74 2881.2l-109.63 77.85c34.95,91.36 135.85,149.35 243.09,149.35 142.2,0 239.12,-57.99 239.12,-182.72 0,-116.78 -108.83,-162.06 -166.04,-185.1 -63.55,-26.22 -111.22,-43.69 -111.22,-80.24 0,-16.69 15.09,-27.81 47.67,-27.81 39.72,0 68.32,21.45 100.09,67.53l121.55 -63.56c-22.24,-56.4 -85,-131.87 -214.49,-131.87 -130.29,0 -216.88,66.73 -216.88,166.83 0,116.78 95.33,160.47 149.35,182.72 63.56,26.22 124.72,45.28 124.72,77.06 0,23.83 -23.04,43.69 -62.76,43.69 -53.22,0 -111.22,-33.37 -144.58,-93.74z"/>
   <polygon id="3" class="fil0" points="3624.16,2667.5 3767.15,2667.5 3767.15,3084.57 3926.04,3084.57 3926.04,2667.5 4069.03,2667.5 4069.03,2528.48 3624.16,2528.48 "/>
   <path id="ColorShapes4" class="fil0" d="M4444.04 2654l85 200.19 -170 0 85 -200.19zm0 -153.33l-258.19 583.9 75.47 0 70.7 -166.83 224.03 0 70.7 166.83 75.47 0 -258.19 -583.9z"/>
   <path id="1" class="fil0" d="M4837.28 2592.04l83.41 0c71.5,0 121.55,34.95 121.55,103.27 0,68.32 -50.05,103.28 -121.55,103.28l-83.41 0 0 -206.55zm-67.52 -63.56l0 556.09 67.52 0 0 -222.44 83.41 0c107.25,0 189.07,-64.35 189.07,-166.83 0,-102.48 -81.83,-166.83 -189.07,-166.83l-150.94 0z"/>
   <path id="2" class="fil0" d="M5274.21 2592.04l83.41 0c71.5,0 121.55,34.95 121.55,103.27 0,68.32 -50.05,103.28 -121.55,103.28l-83.41 0 0 -206.55zm-67.52 -63.56l0 556.09 67.52 0 0 -222.44 83.41 0c107.25,0 189.07,-64.35 189.07,-166.83 0,-102.48 -81.83,-166.83 -189.07,-166.83l-150.94 0z"/>
   <path id="3" class="fil0" d="M5661.09 2905.04l-57.2 34.16c34.96,91.36 107.25,153.32 198.61,153.32 110.43,0 169.21,-64.35 169.21,-158.89 0,-100.89 -82.62,-142.2 -140.61,-163.65 -67.52,-25.42 -128.69,-49.26 -128.69,-109.63 0,-48.46 27.8,-75.47 91.36,-75.47 61.17,0 92.15,45.28 115.98,91.36l54.81 -36.54c-22.24,-56.41 -81.83,-119.17 -171.59,-119.17 -90.56,0 -161.27,58.79 -161.27,135.05 0,100.89 84.21,140.61 139.82,160.47 63.55,23.04 130.28,51.64 130.28,123.14 0,55.61 -31.78,89.77 -95.33,89.77 -69.11,0 -112.01,-47.67 -145.38,-123.93z"/>
   <path id="ColorShapes3" class="fil1" d="M5332.6 1731.15c77.41,0 176.48,-51.12 221.39,-114.26l181.11 -254.66 -1439.95 0c-34.43,133.02 -90.55,257.29 -164.26,368.92l1201.7 0z"/>
   <path id="ColorShapes2" class="fil2" d="M3100.88 2285.87l354.08 0 489.96 0 987.87 0c77.39,0 176.48,-51.12 221.4,-114.19l181.18 -254.66 -1354.87 0c-223.8,227.62 -535.19,368.85 -879.61,368.85z"/>
   <path id="ColorShapes2_0" class="fil3" d="M858.77 1917.02l181.18 254.66c44.78,63.07 143.99,114.19 221.31,114.19l520.98 0 956.86 0 361.77 0c-344.42,0 -655.82,-141.23 -879.61,-368.85l-439.02 0 -923.48 0z"/>
   <path id="ColorShapes1" class="fil4" d="M459.02 1362.3l181.1 254.67c44.8,63.13 144,114.25 221.33,114.25l1209.46 0c-73.73,-111.62 -129.83,-235.91 -164.29,-368.92l-1447.59 0z"/>
   <path id="ColorShapes0" class="fil5" d="M55.59 807.04l181.52 255.42c45.04,63.32 144.43,114.59 222.16,114.59l1596.49 0c61.61,522.59 506,927.97 1045.14,927.97 539.17,0 983.56,-405.43 1045.15,-928.04l1588.81 0c77.69,0 177.06,-51.27 222.17,-114.59l181.52 -255.42 -2013.98 0.02c-110.61,-462.85 -526.93,-807 -1023.66,-807 -496.75,0 -913.06,344.17 -1023.66,807.03l-2021.65 0.02zm3137.5 248.06c0,-50.93 -41.28,-92.21 -92.19,-92.21 -50.92,0 -92.21,41.28 -92.21,92.21 0,50.92 41.29,92.19 92.21,92.19 50.91,0 92.19,-41.28 92.19,-92.19zm-92.19 -879.86c-484.5,0 -877.27,392.77 -877.27,877.27 0,484.5 392.77,877.27 877.27,877.27 484.5,0 877.27,-392.76 877.27,-877.27 0,-484.5 -392.77,-877.27 -877.27,-877.27zm-669.58 606.37c107.19,-264.59 366.57,-451.27 669.58,-451.27 303.5,0 563.24,187.25 670.07,452.5 0.06,10.5 -3.51,31.77 -31.52,41.31 0,0 -20.65,2.59 -15.51,31.89 0,0 0.39,2.86 1.07,7.78l-347.79 45.63c0,0 -94.23,13.8 -142.44,-27.57 0,0 -118.39,-102.28 -275.78,6.91 0,0 -20.69,28.72 -119.52,21.82l-362.33 -44.88c0.71,-5.31 1.13,-8.43 1.13,-8.43 5.16,-29.31 -15.51,-31.86 -15.51,-31.86 -30.45,-10.38 -31.99,-34.68 -31.44,-43.81zm1187.48 186.37l-238.19 48.11c-11.68,2.36 -22.45,-2.34 -24.12,-10.54 -1.65,-8.17 6.49,-16.68 18.13,-19.06l238.19 -48.11c11.65,-2.35 22.42,2.37 24.08,10.53 1.72,8.17 -6.42,16.71 -18.1,19.07zm-509.83 569.77c-0.06,11.9 -6.89,21.51 -15.24,21.46 -8.33,-0.03 -15.04,-9.75 -14.99,-21.62l1.42 -232.66c0.07,-11.91 6.87,-21.51 15.22,-21.46 8.35,0.04 15.04,9.72 14.98,21.63l-1.39 232.66zm-250.15 -530.78c-1.63,8.2 -12.44,12.93 -24.1,10.55l-238.21 -48.13c-11.66,-2.36 -19.76,-10.9 -18.1,-19.06 1.63,-8.18 12.44,-12.91 24.1,-10.54l238.21 48.13c11.66,2.35 19.76,10.9 18.1,19.05zm129.52 703.76c-6.87,34.82 -39.04,44.59 -46.26,46.37 -317.9,-71.34 -556.53,-352.3 -563.16,-690.16 6.83,-47.19 56.27,-42.44 56.27,-42.44 13.76,0.85 17.21,-14.67 17.21,-14.67 1.21,-3.3 2.65,-8.81 4.13,-15.72 56.69,11.28 340.02,71.6 447.32,172.74 0,0 138.42,87.91 114.03,524.21 -29.76,-1.18 -29.54,19.67 -29.54,19.67zm250.05 50.78c-47.22,-0.78 -49.09,-50.07 -49.09,-50.07 -1,-13.76 -16.82,-15.12 -16.82,-15.12 -2.62,-0.58 -6.5,-1.1 -11.26,-1.55 0.07,-34.68 3.61,-375.88 112.62,-495.74 0,0 60.65,-118.96 472.35,-203.82 1.3,5.82 2.51,10.41 3.63,13.34 0,0 3.44,15.53 17.24,14.65 0,0 47.8,-4.59 55.87,40.16 -5.15,346.98 -254.9,634.65 -584.54,698.16zm-137.49 -595.26c-61.4,0 -111.18,-49.75 -111.18,-111.16 0,-61.4 49.78,-111.18 111.18,-111.18 61.41,0 111.15,49.78 111.15,111.18 0,61.41 -49.73,111.16 -111.15,111.16z"/>
  </g>
 </g>
</svg>
